
<?xml version="1.0" encoding="UTF-8" standalone="no"?>
<svg
   height="800"
   cursor="crosshair"
   id="Capa_1"
   xml:space="preserve"
   width="800"
   version="1.1"
   viewBox="0 0 800 800"
   xmlns="http://www.w3.org/2000/svg"
   xmlns:svg="http://www.w3.org/2000/svg"><defs
     id="defs1" /><circle
     style="fill:#010002;stroke-width:6.80631"
     cx="-496.55875"
     cy="158.69463"
     r="33.350895"
     transform="scale(-1,1)"
     id="circle1" /><path
     d="m 290.33453,440.34633 c 39.09541,-58.35045 83.79922,-134.35647 91.31339,-147.18635 0.68063,-2.32776 1.57906,-4.68954 2.8178,-7.06494 8.92987,-17.40373 18.26813,-34.61007 27.79695,-51.70069 -10.10056,0.78953 -20.22834,1.57225 -30.32209,2.35498 -6.94243,13.68067 -13.85083,27.36814 -20.77965,41.04201 -11.15553,22.03202 -44.17291,2.64766 -33.0446,-19.32309 8.92987,-17.64875 19.51368,-57.34312 42.56663,-59.13318 24.52992,-1.90577 49.05304,-3.81153 73.57616,-5.71049 0.59895,-0.0477 1.10942,0.034 1.68115,0.034 18.54038,-4.9618 40.27291,8.11992 44.20695,27.02103 12.53721,27.15035 30.53989,48.35199 60.74627,57.20019 23.6451,6.9152 13.57177,43.85302 -10.17542,36.91059 -29.85926,-8.7393 -51.30593,-25.85035 -67.56619,-48.37241 -9.84872,17.56027 -19.46603,35.22943 -28.68177,53.14363 20.26236,13.97334 37.96557,30.8734 53.47714,50.37346 4.32881,5.43824 5.07069,11.03302 3.61414,15.95398 0.0545,1.8377 -0.0613,3.74346 -0.58533,5.81258 -5.96914,23.63149 -11.93146,47.22214 -17.90739,70.82641 -6.33668,25.1561 -46.16037,18.00949 -39.76925,-7.30997 5.68327,-22.49484 11.37334,-44.98968 17.0566,-67.49812 -14.2524,-16.80478 -31.05717,-31.42471 -50.25775,-42.34202 -4.51939,-2.57279 -7.36442,-6.11888 -8.94349,-10.0257 -26.26553,40.2525 -52.53786,95.94167 -78.78978,129.69414 -16.02204,20.59588 -48.07293,-4.06336 -32.03047,-24.70007"
     style="fill:#010002;stroke-width:6.80631"
     id="path1" /><path
     stroke="#000000"
     id="path2"
     stroke-width="0.86301"
     d="M 274.60516,309.65846 H 77.222317 V 649.9737 H 717.01497 V 547.87913 a 13.61261,13.61261 0 0 0 -27.22522,0 v 74.86936 H 104.44754 V 336.88368 h 170.15762 a 13.61261,13.61261 0 0 0 0,-27.22522"
     fill="#000000" /></svg>
